<svg width="20" height="20" viewBox="0 0 20 20" fill="none" xmlns="http://www.w3.org/2000/svg">
<path d="M19.8164 8.1798H10.2035V12.0495H15.6951C15.4583 13.3003 14.7399 14.3583 13.657 15.0671C12.7418 15.6665 11.5738 16.0208 10.2009 16.0208C7.5429 16.0208 5.29467 14.2619 4.49115 11.8984C4.28895 11.299 4.17188 10.658 4.17188 9.9987C4.17188 9.33941 4.28895 8.69837 4.49115 8.09902C5.29733 5.73811 7.54556 3.97915 10.2035 3.97915C11.7015 3.97915 13.0451 4.48469 14.104 5.47492L17.0307 2.60586C15.2614 0.990228 12.9546 0 10.2035 0C6.21525 0 2.7644 2.24104 1.08554 5.50879C0.393774 6.85863 0 8.38567 0 10.0013C0 11.6169 0.393774 13.1414 1.08554 14.4912C2.7644 17.759 6.21525 20 10.2035 20C12.96 20 15.2694 19.1036 16.9562 17.5765C18.8852 15.8358 20 13.2717 20 10.2254C20 9.51661 19.9361 8.83648 19.8164 8.1798Z" fill="#171717"/>
</svg>
